<svg xmlns="http://www.w3.org/2000/svg" width="317" height="48" viewBox="0 0 317 48">
    <g fill="#FFF" fill-rule="evenodd">
        <path d="M312.852 16.21h-.877l-1.041-1.945h-1.164v1.944h-.822v-5.138h1.931c.512 0 .923.152 1.233.458.31.305.466.685.466 1.139 0 .268-.05.488-.15.66-.101.17-.21.312-.33.423-.146.13-.306.232-.48.306l1.234 2.152zm-3.082-2.778h1.164c.594 0 .89-.255.89-.764 0-.51-.296-.764-.89-.764h-1.164v1.528zm-3.22.208c0 .593.105 1.141.315 1.646a4.04 4.04 0 0 0 3.795 2.52 4.04 4.04 0 0 0 3.795-2.52 4.24 4.24 0 0 0 .315-1.646 4.24 4.24 0 0 0-.315-1.646 4.04 4.04 0 0 0-3.795-2.52 4.04 4.04 0 0 0-3.795 2.52 4.24 4.24 0 0 0-.315 1.646zm9.11 0c0 .694-.13 1.345-.39 1.951a5.111 5.111 0 0 1-1.062 1.59 4.969 4.969 0 0 1-3.548 1.458c-.703.001-1.358-.129-1.966-.388a4.898 4.898 0 0 1-1.582-1.07 5.111 5.111 0 0 1-1.062-1.59 4.895 4.895 0 0 1-.39-1.951c0-.694.13-1.345.39-1.951a5.111 5.111 0 0 1 1.062-1.59c.448-.454.975-.81 1.582-1.07a4.954 4.954 0 0 1 1.966-.389 4.969 4.969 0 0 1 3.548 1.458c.447.454.801.984 1.062 1.59.26.607.39 1.258.39 1.952zM93.315 11.935v4.937H86v20.665h-5.486V16.872h-7.315v-4.937zM105.2 24.37s-.548-.183-1.646-.183c-2.56 0-4.206 1.646-4.206 4.755v8.595H94.41V19.616h4.937v2.194s1.83-2.377 5.12-2.377h.732v4.937zM120.012 35.708s-1.83 2.194-5.121 2.194c-4.023 0-6.949-2.925-6.949-7.57V19.614h4.937v10.241c0 2.012 1.463 3.475 3.475 3.475 2.195 0 3.658-1.463 3.658-4.206v-9.51h4.937v17.922h-4.937v-1.829zM133.907 26.748h8.23c-.366-1.829-1.829-3.292-4.023-3.292-2.195 0-3.658 1.463-4.207 3.292zm0 3.474c.366 1.829 2.012 3.475 4.755 3.475 3.109 0 4.755-2.195 4.755-2.195l2.56 3.292s-2.743 3.109-7.681 3.109c-5.303 0-9.51-4.206-9.51-9.327 0-5.12 4.207-9.326 9.328-9.326 5.12 0 8.96 3.84 8.96 8.96 0 1.28-.182 2.012-.182 2.012h-12.985zM157.314 16.872v7.315h5.12c2.195 0 3.841-1.645 3.841-3.657s-1.646-3.658-3.84-3.658h-5.12zm5.303-4.937c5.304 0 9.144 3.767 9.144 8.595 0 4.864-3.84 8.595-9.144 8.595h-5.303v8.412h-5.486V11.935h10.79zM186.387 24.37s-.548-.183-1.646-.183c-2.56 0-4.206 1.646-4.206 4.755v8.595h-4.937V19.616h4.937v2.194s1.83-2.377 5.12-2.377h.732v4.937zM197.541 33.331c2.377 0 4.39-2.011 4.39-4.755 0-2.743-2.013-4.754-4.39-4.754s-4.388 2.011-4.388 4.754c0 2.744 2.011 4.755 4.388 4.755m0 4.571c-5.12 0-9.508-4.388-9.508-9.326 0-4.937 4.387-9.326 9.508-9.326 5.121 0 9.51 4.389 9.51 9.326 0 4.938-4.389 9.326-9.51 9.326M220.764 24.553h-4.022v12.984h-4.938V24.553h-2.56v-4.389h2.56v-2.377c0-4.206 2.012-6.218 5.67-6.218 1.828 0 3.29.549 3.29.549v4.206s-.73-.366-1.827-.366c-1.281 0-2.195.914-2.195 2.011v2.195h4.022v4.39zM224.238 37.537h4.937V19.615h-4.937v17.922zm2.377-20.299c-1.646 0-2.743-1.097-2.743-2.743s1.097-2.743 2.743-2.743c1.829 0 2.926 1.097 2.926 2.743s-1.097 2.743-2.926 2.743zM234.294 37.537h4.938V11.935h-4.938zM248.192 26.748h8.23c-.367-1.829-1.83-3.292-4.023-3.292-2.195 0-3.658 1.463-4.207 3.292zm0 3.474c.365 1.829 2.012 3.475 4.755 3.475 3.108 0 4.754-2.195 4.754-2.195l2.56 3.292s-2.743 3.109-7.68 3.109c-5.303 0-9.51-4.206-9.51-9.327 0-5.12 4.207-9.326 9.328-9.326 5.119 0 8.96 3.84 8.96 8.96 0 1.28-.183 2.012-.183 2.012h-12.984zM267.392 32.417c1.645 0 2.925 1.28 2.925 2.743 0 1.463-1.28 2.743-2.925 2.743-1.646 0-2.927-1.28-2.927-2.743 0-1.463 1.281-2.743 2.927-2.743M274.34 37.537h4.937V19.615h-4.937v17.922zm2.377-20.299c-1.646 0-2.743-1.097-2.743-2.743s1.097-2.743 2.743-2.743c1.829 0 2.926 1.097 2.926 2.743s-1.097 2.743-2.926 2.743zM292.626 33.331c2.377 0 4.39-2.011 4.39-4.755 0-2.743-2.013-4.754-4.39-4.754s-4.389 2.011-4.389 4.754c0 2.744 2.012 4.755 4.39 4.755m0 4.571c-5.122 0-9.51-4.388-9.51-9.326 0-4.937 4.388-9.326 9.51-9.326 5.12 0 9.508 4.389 9.508 9.326 0 4.938-4.388 9.326-9.509 9.326"/>
        <g>
            <path d="M2.095 0h43.81C47.062 0 48 .974 48 2.176v43.648C48 47.026 47.062 48 45.905 48H2.095C.938 48 0 47.026 0 45.824V2.176C0 .974.938 0 2.095 0zm12.764 22.652h6.781v-5.62h15.741c-2.053-4.02-6.234-6.782-11.05-6.782H9.24v6.783h5.619v5.619zM31.95 20.39a5.626 5.626 0 0 1-5.62 5.62H14.86v12.401h6.781v-5.62h4.691c6.838 0 12.402-5.562 12.402-12.401H31.95z"/>
        </g>
    </g>
</svg>
